<?xml version="1.0" encoding="UTF-8"?><svg id="Layer_1" xmlns="http://www.w3.org/2000/svg" xmlns:xlink="http://www.w3.org/1999/xlink" viewBox="0 0 656.29 679.37"><defs><style>.cls-1{fill:url(#linear-gradient-2);}.cls-2{clip-path:url(#clippath-20);}.cls-3{clip-path:url(#clippath-11);}.cls-4{clip-path:url(#clippath-16);}.cls-5,.cls-6,.cls-7,.cls-8{fill:#fff;}.cls-9{opacity:.3;}.cls-10{fill:#e84142;}.cls-10,.cls-11,.cls-12,.cls-13,.cls-14,.cls-15{fill-rule:evenodd;}.cls-6,.cls-7,.cls-16,.cls-17,.cls-18,.cls-19,.cls-20,.cls-21,.cls-8,.cls-22,.cls-23,.cls-24{stroke:#000;}.cls-6,.cls-16,.cls-18,.cls-21{stroke-width:1.29px;}.cls-25{mask:url(#mask-2);}.cls-26{fill:url(#linear-gradient-6);}.cls-27{clip-path:url(#clippath-2);}.cls-28{clip-path:url(#clippath-13);}.cls-29{clip-path:url(#clippath-15);}.cls-30{clip-path:url(#clippath-6);}.cls-31{clip-path:url(#clippath-7);}.cls-32{clip-path:url(#clippath-21);}.cls-7,.cls-23{stroke-width:2px;}.cls-33{clip-path:url(#clippath-1);}.cls-34{clip-path:url(#clippath-4);}.cls-16,.cls-35,.cls-20,.cls-23,.cls-24{fill:none;}.cls-36{clip-path:url(#clippath-12);}.cls-11{fill:#f7f26b;}.cls-17,.cls-20,.cls-22{stroke-width:2.57px;}.cls-18,.cls-22{fill:#001de9;}.cls-37{clip-path:url(#clippath-22);}.cls-38{fill:url(#linear-gradient-5);}.cls-39{clip-path:url(#clippath-9);}.cls-40{clip-path:url(#clippath);}.cls-41{opacity:.2;}.cls-12{fill:#5efaf7;}.cls-42{clip-path:url(#clippath-19);}.cls-43{fill:#f3ba2f;}.cls-44{fill:#535353;}.cls-45{clip-path:url(#clippath-3);}.cls-46{fill:#8247e5;}.cls-47{clip-path:url(#clippath-8);}.cls-21{fill:#bcbcbc;}.cls-8{stroke-width:1.62px;}.cls-13{fill:#eefa72;}.cls-48{mask:url(#mask-1);}.cls-49{mask:url(#mask);}.cls-50{clip-path:url(#clippath-18);}.cls-51{clip-path:url(#clippath-14);}.cls-52{fill:url(#linear-gradient-3);}.cls-53{clip-path:url(#clippath-17);}.cls-54{clip-path:url(#clippath-5);}.cls-55{opacity:.1;}.cls-56{fill:url(#linear-gradient);}.cls-57{clip-path:url(#clippath-10);}.cls-58{clip-path:url(#clippath-23);}.cls-59{fill:url(#linear-gradient-4);}.cls-14{fill:#01052d;}</style><mask id="mask" x="485.58" y="286.46" width="56.68" height="94.98" maskUnits="userSpaceOnUse"/><mask id="mask-1" x="492.98" y="255.91" width="118.7" height="63.05" maskUnits="userSpaceOnUse"/><mask id="mask-2" x="535.67" y="317.63" width="76.02" height="64.38" maskUnits="userSpaceOnUse"/><clipPath id="clippath"><rect class="cls-35" width="241.78" height="161.19"/></clipPath><clipPath id="clippath-1"><rect class="cls-35" width="241.78" height="161.19"/></clipPath><clipPath id="clippath-2"><rect class="cls-35" width="241.78" height="161.19"/></clipPath><clipPath id="clippath-3"><rect class="cls-35" x="112.35" y="78.9" width="22.52" height="12.22"/></clipPath><clipPath id="clippath-4"><path class="cls-35" d="M112.97,55.87c9.36,1.95,17.63,6.88,23.78,13.74,3.65,4.07,6.54,8.82,8.48,14.05v-28.1h0s-12.16-7.03-12.16-7.03l-12.17-7.02c-3.55,4.29-6.22,9.18-7.92,14.37"/></clipPath><linearGradient id="linear-gradient" x1="37.14" y1="678.88" x2="37.57" y2="678.88" gradientTransform="translate(81092.51 4518.97) rotate(-90) scale(119.26 -119.26)" gradientUnits="userSpaceOnUse"><stop offset="0" stop-color="#9027e2"/><stop offset="1" stop-color="#0276db"/></linearGradient><clipPath id="clippath-5"><rect class="cls-35" width="241.78" height="161.19"/></clipPath><clipPath id="clippath-6"><rect class="cls-35" x="117.19" y="46.56" width=".08" height=".13"/></clipPath><clipPath id="clippath-7"><rect class="cls-35" x="117.28" y="46.15" width="27.95" height="37.51"/></clipPath><clipPath id="clippath-8"><path class="cls-35" d="M112.97,55.87c9.36,1.95,17.63,6.88,23.78,13.74,3.64,4.07,6.54,8.82,8.48,14.03-1.52-16.97-12.67-31.16-27.95-37.08-1.8,2.94-3.24,6.06-4.31,9.31"/></clipPath><linearGradient id="linear-gradient-2" x1="37.24" y1="678.46" x2="37.67" y2="678.46" gradientTransform="translate(77728.23 4352.01) rotate(-90) scale(114.37 -114.37)" gradientUnits="userSpaceOnUse"><stop offset="0" stop-color="#0276db"/><stop offset="1" stop-color="#2ddaff"/></linearGradient><clipPath id="clippath-9"><path class="cls-35" d="M112.96,83.34c-5.35,1.12-10.91,1.26-16.4,.32l12.17,7.03,12.17,7.03h0s12.16-7.03,12.16-7.03l12.17-7.03c-1.94-5.22-4.84-9.97-8.48-14.05-6.37,7.13-14.77,11.83-23.79,13.72"/></clipPath><linearGradient id="linear-gradient-3" x1="33.97" y1="676.15" x2="34.4" y2="676.15" gradientTransform="translate(4563.32 -87779.32) rotate(180) scale(129.95 -129.95)" xlink:href="#linear-gradient"/><clipPath id="clippath-10"><rect class="cls-35" width="241.78" height="161.19"/></clipPath><clipPath id="clippath-11"><rect class="cls-35" x="96.55" y="69.61" width="46.34" height="18.57"/></clipPath><clipPath id="clippath-12"><path class="cls-35" d="M112.96,83.34c-5.34,1.12-10.91,1.26-16.39,.33,15.46,7.17,33.33,4.61,46.09-5.66-1.64-3.03-3.63-5.84-5.91-8.38-6.37,7.13-14.77,11.83-23.79,13.72"/></clipPath><linearGradient id="linear-gradient-4" x1="33.77" y1="676.94" x2="34.2" y2="676.94" gradientTransform="translate(5719.61 -111628.62) rotate(-180) scale(165.02 -165.02)" xlink:href="#linear-gradient-2"/><clipPath id="clippath-13"><path class="cls-35" d="M108.72,48.53l-12.17,7.03h0v28.1c5.49,.93,11.06,.8,16.4-.32-2.99-9.08-2.86-18.71,.01-27.46,1.7-5.19,4.37-10.08,7.92-14.37l-12.17,7.02Z"/></clipPath><linearGradient id="linear-gradient-5" x1="36.14" y1="682.15" x2="36.57" y2="682.15" gradientTransform="translate(-4269.01 82170.39) scale(120.37 -120.37)" xlink:href="#linear-gradient"/><clipPath id="clippath-14"><rect class="cls-35" width="241.78" height="161.19"/></clipPath><clipPath id="clippath-15"><rect class="cls-35" x="101.74" y="41.51" width="19.15" height="42.77"/></clipPath><clipPath id="clippath-16"><rect class="cls-35" x="112.97" y="41.51" width="7.91" height="16.68"/></clipPath><clipPath id="clippath-17"><path class="cls-35" d="M102.74,84.26c3.44,.09,6.87-.23,10.22-.93-2.99-9.08-2.86-18.71,.01-27.46,1.7-5.19,4.37-10.07,7.91-14.36-13.93,9.8-20.65,26.56-18.14,42.75"/></clipPath><linearGradient id="linear-gradient-6" x1="36.27" y1="682.25" x2="36.7" y2="682.25" gradientTransform="translate(-4112.9 79052.5) scale(115.78 -115.78)" xlink:href="#linear-gradient-2"/><clipPath id="clippath-18"><rect class="cls-35" width="241.78" height="161.19"/></clipPath><clipPath id="clippath-19"><rect class="cls-35" x="102.23" y="41.53" width="18.63" height="42.74"/></clipPath><clipPath id="clippath-20"><rect class="cls-35" x="130.94" y="69.63" width="14.29" height="14.03"/></clipPath><clipPath id="clippath-21"><rect class="cls-35" x="96.55" y="75.58" width="16.39" height="8.69"/></clipPath><clipPath id="clippath-22"><rect class="cls-35" x="116.39" y="46.65" width="28.84" height="37"/></clipPath><clipPath id="clippath-23"><rect class="cls-35" x="96.55" y="76.22" width="46.06" height="11.5"/></clipPath></defs><path class="cls-8" d="M105.4,112.31l-44.36-44.51,40.92-25,45.76,45.91-42.31,23.6Z"/><line class="cls-23" x1="120.81" y1="78.69" x2="120.81" y2="640.3"/><rect class="cls-6" x="33.93" y="187.36" width="621.71" height="342.71" rx="5.79" ry="5.79"/><line class="cls-16" x1="75.28" y1="230.08" x2="615.28" y2="230.08"/><circle cx="603.54" cy="209.43" r="11.26"/><rect class="cls-21" x="75.93" y="256.03" width="88.79" height="232.9" rx="5.36" ry="5.36"/><rect class="cls-18" x="379.48" y="256.03" width="88.7" height="124.69" rx="5.36" ry="5.36"/><rect class="cls-16" x="202.03" y="256.03" width="160.85" height="124.82" rx="5.36" ry="5.36"/><rect class="cls-6" x="202.03" y="400.15" width="413.05" height="88.79" rx="4.36" ry="4.36"/><g class="cls-49"><path class="cls-20" d="M494.6,286.46c-5.38,8.95-8.46,19.1-8.95,29.53-.49,10.43,1.61,20.82,6.13,30.24,4.52,9.42,11.3,17.56,19.74,23.71,8.44,6.15,18.28,10.1,28.63,11.5l2.11-15.54c-7.77-1.06-15.16-4.02-21.51-8.64-6.34-4.62-11.44-10.74-14.83-17.81-3.39-7.07-4.98-14.88-4.61-22.72,.37-7.84,2.68-15.46,6.72-22.18l-13.44-8.08Z"/></g><g class="cls-48"><path class="cls-22" d="M611.69,318.96c0-14.06-4.7-27.73-13.36-38.81-8.66-11.09-20.77-18.96-34.42-22.36-13.65-3.41-28.04-2.15-40.89,3.56-12.85,5.71-23.42,15.56-30.03,27.98l13.85,7.37c4.97-9.33,12.91-16.72,22.56-21.02s20.47-5.24,30.72-2.68c10.25,2.56,19.35,8.47,25.86,16.8,6.5,8.33,10.04,18.59,10.04,29.15h15.69Z"/></g><g class="cls-25"><path class="cls-17" d="M535.67,380.66c9.29,1.95,18.9,1.78,28.11-.5,9.21-2.28,17.79-6.61,25.1-12.67,7.31-6.06,13.15-13.69,17.09-22.32,3.95-8.63,5.89-18.05,5.69-27.54l-15.68,.33c.15,7.13-1.31,14.2-4.28,20.69-2.96,6.49-7.35,12.22-12.84,16.77-5.49,4.55-11.93,7.81-18.86,9.52-6.92,1.71-14.14,1.84-21.12,.38l-3.23,15.35Z"/></g><rect class="cls-24" x="219.73" y="268.41" width="124.98" height="31.39" rx="3.5" ry="3.5"/><rect class="cls-24" x="219.73" y="309.2" width="124.98" height="30.19" rx="3.5" ry="3.5"/><rect class="cls-19" x="219.76" y="348.28" width="124.98" height="21.8" rx="3.5" ry="3.5"/><rect x="219.4" y="413.02" width="90.07" height="18.01"/><rect x="219.4" y="453.55" width="18.01" height="20.27"/><rect x="246.42" y="453.55" width="9.01" height="20.27"/><rect x="273.45" y="453.55" width="9.01" height="20.27"/><rect x="341" y="413.02" width="90.07" height="2.25"/><rect x="512.14" y="444.54" width="90.07" height="2.25"/><rect class="cls-5" x="84.29" y="280.16" width="72.06" height="2.25"/><rect class="cls-5" x="388.43" y="268.59" width="72.06" height="2.25"/><rect x="341" y="417.52" width="90.07" height="2.25"/><rect x="512.14" y="449.05" width="90.07" height="2.25"/><rect class="cls-5" x="84.29" y="304.93" width="72.06" height="2.25"/><rect class="cls-5" x="388.43" y="293.36" width="72.06" height="2.25"/><rect x="341" y="422.03" width="90.07" height="2.25"/><rect x="512.14" y="453.55" width="90.07" height="2.25"/><rect class="cls-5" x="84.29" y="329.7" width="72.06" height="2.25"/><rect class="cls-5" x="388.43" y="318.13" width="72.06" height="2.25"/><rect x="341" y="426.53" width="90.07" height="2.25"/><rect x="512.14" y="458.06" width="90.07" height="2.25"/><rect class="cls-5" x="84.29" y="354.47" width="72.06" height="2.25"/><rect class="cls-5" x="388.43" y="342.9" width="72.06" height="2.25"/><rect x="341" y="431.03" width="90.07" height="2.25"/><rect x="512.14" y="462.56" width="90.07" height="2.25"/><rect class="cls-5" x="84.29" y="379.24" width="72.06" height="2.25"/><rect class="cls-5" x="388.43" y="367.67" width="72.06" height="2.25"/><rect x="341" y="435.54" width="90.07" height="2.25"/><rect x="512.14" y="467.06" width="90.07" height="2.25"/><rect class="cls-5" x="84.29" y="404.01" width="72.06" height="2.25"/><rect x="341" y="440.04" width="90.07" height="2.25"/><rect x="512.14" y="471.57" width="90.07" height="2.25"/><rect class="cls-5" x="84.29" y="428.78" width="72.06" height="2.25"/><rect x="341" y="444.54" width="90.07" height="2.25"/><rect x="512.14" y="476.07" width="90.07" height="2.25"/><rect class="cls-5" x="84.29" y="453.55" width="72.06" height="2.25"/><circle class="cls-44" cx="319.41" cy="281.7" r="6.6"/><ellipse cx="328.41" cy="285.3" rx="8.4" ry="7.8"/><line class="cls-23" x1="242.21" y1="42.2" x2="242.21" y2="204.02"/><ellipse cx="138.24" cy="43.49" rx="6.56" ry="6.63"/><ellipse cx="104.66" cy="78.97" rx="6.56" ry="6.63"/><circle cx="242" cy="204.81" r="7.14"/><circle cx="524.17" cy="514.85" r="6.63"/><circle cx="501.11" cy="640.58" r="6.63"/><line class="cls-23" x1="524.22" y1="515.8" x2="524.22" y2="600.99"/><line class="cls-23" x1="243.2" y1="42.79" x2="139.5" y2="42.79"/><line class="cls-23" x1="120.32" y1="639.3" x2="500.83" y2="639.3"/><circle class="cls-7" cx="523.02" cy="634.48" r="43.49"/><circle class="cls-7" cx="523.02" cy="634.48" r="28.01"/><ellipse class="cls-7" cx="120.43" cy="69.85" rx="66.5" ry="67.15"/><ellipse class="cls-7" cx="120.43" cy="69.85" rx="43.03" ry="43.44"/><rect class="cls-35" x="502.53" y="614.49" width="41.2" height="40.2"/><circle class="cls-7" cx="400.47" cy="634.78" r="43.49"/><circle class="cls-7" cx="400.47" cy="634.78" r="28.01"/><circle class="cls-7" cx="264.4" cy="634.89" r="43.49"/><circle class="cls-7" cx="264.4" cy="634.89" r="28.01"/><circle class="cls-7" cx="120.81" cy="634.58" r="43.49"/><circle class="cls-7" cx="120.81" cy="634.58" r="28.01"/><g class="cls-40"><g class="cls-33"><g class="cls-27"><g class="cls-55"><g class="cls-45"><path class="cls-15" d="M119.23,84.07c-2.38,0-4.69-.32-6.88-.93,.26,2.69,.78,5.36,1.55,7.97,8.01-1.92,15.3-6.11,20.97-12.09l-.12-.12c-4.32,3.25-9.69,5.17-15.51,5.17"/></g></g></g><g class="cls-34"><rect class="cls-56" x="103" y="36.13" width="52.21" height="52.9" transform="translate(-8.61 102.81) rotate(-42.14)"/></g><g class="cls-54"><g class="cls-9"><g class="cls-30"><path class="cls-11" d="M117.19,46.7s.05-.09,.08-.13h0s-.08,.13-.08,.13Z"/></g></g><g class="cls-9"><g class="cls-31"><path class="cls-11" d="M117.53,46.15c-.09,.14-.17,.28-.26,.42,15.28,5.92,26.42,20.11,27.95,37.08h0c-.34-10.51-5.16-20.27-12.38-27.49-4.35-4.35-9.59-7.78-15.32-10.01"/></g></g></g><g class="cls-47"><rect class="cls-1" x="104.54" y="40.66" width="49.12" height="48.88" transform="translate(-6.58 115.08) rotate(-46.98)"/></g><g class="cls-39"><rect class="cls-52" x="93.35" y="62.62" width="55.07" height="42.08" transform="translate(-20.29 42.66) rotate(-18.49)"/></g><g class="cls-57"><g class="cls-9"><g class="cls-3"><path class="cls-12" d="M112.96,83.34c-5.35,1.12-10.91,1.26-16.4,.32,9.18,4.91,20.15,5.67,30,3.03,5.94-1.59,11.53-4.41,16.33-8.26-1.69-3.19-3.76-6.15-6.14-8.82-6.37,7.13-14.77,11.83-23.79,13.72"/></g></g></g><g class="cls-36"><rect class="cls-59" x="94.35" y="62.56" width="50.52" height="35.32" transform="translate(-19.86 44.29) rotate(-19.4)"/></g><g class="cls-28"><rect class="cls-38" x="84.33" y="44.3" width="48.79" height="37.51" transform="translate(12.54 143.95) rotate(-70.18)"/></g><g class="cls-51"><g class="cls-9"><g class="cls-29"><path class="cls-13" d="M103.27,65.98c-1.59,5.94-1.94,12.19-1.01,18.27,3.61,.13,7.2-.18,10.71-.91-2.99-9.08-2.86-18.71,.01-27.46,1.7-5.19,4.37-10.08,7.92-14.37-8.96,5.78-14.98,14.61-17.63,24.47"/></g></g><g class="cls-41"><g class="cls-4"><path class="cls-14" d="M112.97,55.87c2.63,.55,5.17,1.33,7.61,2.33-2.03-10.77,.31-16.68,.31-16.68-3.55,4.29-6.21,9.17-7.91,14.36"/></g></g></g><g class="cls-53"><rect class="cls-26" x="86.99" y="46.46" width="47.13" height="32.95" transform="translate(16.36 148.43) rotate(-71.88)"/></g><g class="cls-50"><g class="cls-41"><g class="cls-42"><path class="cls-14" d="M102.74,84.26c.68,.02,1.36,.02,2.04,0-3.59-22.23,8.4-36.31,16.08-42.74-13.92,9.81-20.62,26.55-18.11,42.73"/></g></g><g class="cls-41"><g class="cls-2"><path class="cls-14" d="M130.94,75.05c10.34,3.62,14.29,8.61,14.29,8.61-1.94-5.22-4.84-9.96-8.48-14.03-1.79,2-3.74,3.81-5.82,5.42"/></g></g><g class="cls-41"><g class="cls-32"><path class="cls-14" d="M96.55,83.66c5.49,.93,11.05,.8,16.39-.33-.84-2.55-1.43-5.14-1.79-7.75-8.31,7.14-14.6,8.08-14.6,8.08"/></g></g><g class="cls-41"><g class="cls-37"><path class="cls-14" d="M117.41,46.65c-.36,.58-.7,1.16-1.03,1.76,20.94,8.03,27.12,25.39,28.84,35.24-1.53-16.91-12.61-31.05-27.81-37"/></g></g><g class="cls-41"><g class="cls-58"><path class="cls-14" d="M96.55,83.66c15.45,7.15,33.31,4.59,46.06-5.68-.32-.6-.66-1.18-1.01-1.77-17.46,14.22-35.64,10.88-45.05,7.44"/></g></g></g></g></g><path class="cls-46" d="M408.58,629.72c-.6-.34-1.36-.34-2.04,0l-4.77,2.81-3.24,1.79-4.68,2.81c-.6,.34-1.36,.34-2.04,0l-3.66-2.21c-.6-.34-1.02-1.02-1.02-1.79v-4.26c0-.68,.34-1.36,1.02-1.79l3.66-2.13c.6-.34,1.36-.34,2.04,0l3.66,2.21c.6,.34,1.02,1.02,1.02,1.79v2.81l3.24-1.87v-2.9c0-.68-.34-1.36-1.02-1.79l-6.81-4c-.6-.34-1.36-.34-2.04,0l-6.98,4.09c-.68,.34-1.02,1.02-1.02,1.7v8.01c0,.68,.34,1.36,1.02,1.79l6.9,4c.6,.34,1.36,.34,2.04,0l4.68-2.73,3.24-1.87,4.68-2.73c.6-.34,1.36-.34,2.04,0l3.66,2.13c.6,.34,1.02,1.02,1.02,1.79v4.26c0,.68-.34,1.36-1.02,1.79l-3.58,2.13c-.6,.34-1.36,.34-2.04,0l-3.66-2.13c-.6-.34-1.02-1.02-1.02-1.79v-2.73l-3.24,1.87v2.81c0,.68,.34,1.36,1.02,1.79l6.9,4c.6,.34,1.36,.34,2.04,0l6.9-4c.6-.34,1.02-1.02,1.02-1.79v-8.09c0-.68-.34-1.36-1.02-1.79l-6.9-4Z"/><g><path class="cls-43" d="M257.71,632.22l6.86-6.86,6.86,6.86,3.99-3.99-10.86-10.86-10.85,10.85,3.99,3.99m-10.8,2.82l3.99-3.99,3.99,3.99-3.99,3.99-3.99-3.99Zm10.8,2.82l6.86,6.86,6.86-6.86,3.99,3.99h0s-10.86,10.86-10.86,10.86l-10.85-10.85h0s4-3.99,4-3.99m16.54-2.82l3.99-3.99,3.99,3.99-3.99,3.99-3.99-3.99Z"/><path class="cls-43" d="M268.62,635.04h0l-4.05-4.05-2.99,2.99h0l-.34,.34-.71,.71h0s0,.01,0,.01l4.05,4.05,4.05-4.05h0s0,0,0,0"/></g><path class="cls-10" d="M112.06,647.54h-5.91c-1.24,0-1.85,0-2.23-.24-.4-.26-.65-.7-.68-1.17-.02-.44,.28-.98,.9-2.06l14.59-25.71c.62-1.09,.93-1.64,1.33-1.84,.43-.22,.93-.22,1.36,0,.4,.2,.71,.75,1.33,1.84l3,5.23,.02,.03c.67,1.17,1.01,1.77,1.16,2.39,.16,.68,.16,1.4,0,2.08-.15,.63-.49,1.23-1.17,2.42l-7.66,13.54-.02,.03c-.67,1.18-1.02,1.78-1.49,2.23-.52,.49-1.14,.85-1.82,1.05-.62,.17-1.32,.17-2.71,.17Z"/><path class="cls-10" d="M126.98,647.54h8.47c1.25,0,1.88,0,2.25-.25,.4-.26,.66-.7,.68-1.18,.02-.43-.28-.94-.87-1.96-.02-.03-.04-.07-.06-.11l-4.24-7.25-.05-.08c-.6-1.01-.9-1.52-1.28-1.71-.43-.22-.93-.22-1.35,0-.39,.2-.7,.73-1.32,1.8l-4.23,7.25v.02c-.63,1.07-.94,1.6-.92,2.04,.03,.48,.28,.92,.68,1.18,.37,.24,.99,.24,2.24,.24Z"/></svg>