<svg fill="none" height="25" viewBox="0 0 24 24" width="25" xmlns="http://www.w3.org/2000/svg" xmlns:xlink="http://www.w3.org/1999/xlink"><linearGradient id="paint0_linear_657_7132" gradientUnits="userSpaceOnUse" x1="12" x2="12" y1="3.25" y2="20.75"><stop offset="0" stop-color="#3747d6"/><stop offset="1" stop-color="#9545ed"/></linearGradient><g fill="url(#paint0_linear_657_7132)"><path d="m6 3.25c-1.51878 0-2.75 1.23122-2.75 2.75v2c0 1.51878 1.23122 2.75 2.75 2.75h2c1.51878 0 2.75-1.23122 2.75-2.75v-2c0-1.51878-1.23122-2.75-2.75-2.75z"/><path d="m16 3.25c-1.5188 0-2.75 1.23122-2.75 2.75v2c0 1.51878 1.2312 2.75 2.75 2.75h2c1.5188 0 2.75-1.23122 2.75-2.75v-2c0-1.51878-1.2312-2.75-2.75-2.75z"/><path d="m6 13.25c-1.51878 0-2.75 1.2312-2.75 2.75v2c0 1.5188 1.23122 2.75 2.75 2.75h2c1.51878 0 2.75-1.2312 2.75-2.75v-2c0-1.5188-1.23122-2.75-2.75-2.75z"/><path d="m16 13.25c-1.5188 0-2.75 1.2312-2.75 2.75v2c0 1.5188 1.2312 2.75 2.75 2.75h2c1.5188 0 2.75-1.2312 2.75-2.75v-2c0-1.5188-1.2312-2.75-2.75-2.75z"/></g></svg>